<?xml version="1.0" encoding="utf-8"?>
<!-- Generator: Adobe Illustrator 22.0.1, SVG Export Plug-In . SVG Version: 6.00 Build 0)  -->
<svg version="1.1" id="Layer_1" xmlns="http://www.w3.org/2000/svg" xmlns:xlink="http://www.w3.org/1999/xlink" x="0px" y="0px"
	 viewBox="0 0 500 500" style="enable-background:new 0 0 500 500;" xml:space="preserve">
<style type="text/css">
	.st0{fill:#FFFFFF;}
</style>
<g>
	<path class="st0" d="M497.1,318.5c-5.1-33.7-19.2-93.2-58.3-143.4c-4.3-13.1-13.1-33.2-30.4-47.9c5.3-9.6,12.7-24.5,16.9-40.1
		c-0.6,0-1.1,0.1-1.7,0.1c-3.6,0-7-0.7-10.2-1.8c-3.7,13.2-9.6,25.7-14.4,34.9c-12-7.5-27.1-12.4-46.1-12.2
		C324,95.6,289.7,87.8,248.6,87.2v0c-0.2,0-0.3,0-0.5,0c-0.2,0-0.3,0-0.5,0v0c-40.4,0.6-74.3,8.4-102.6,20.9
		c-19.3-0.3-34.7,4.6-46.7,12.2c-4.9-9.2-10.7-21.7-14.4-34.9c-3.2,1.2-6.6,1.8-10.2,1.8c-0.6,0-1.1-0.1-1.7-0.1
		c4.2,15.6,11.6,30.5,16.9,40.1c-19.3,16.5-28.1,39.5-31.7,52.2C21.1,228.7,7.8,285.8,2.9,318.5C-0.2,339.5,4.8,360.9,17,378
		c60.5,84.3,217.3,92.5,230.6,93.1v0c0,0,0.2,0,0.5,0c0.3,0,0.5,0,0.5,0v0c13.4-0.5,172.6-8.8,234.1-93.1
		C495.2,360.9,500.2,339.5,497.1,318.5z M435.3,357.2c-49.3,53.2-177,58.4-187.8,58.8v0c0,0-0.1,0-0.4,0c-0.2,0-0.4,0-0.4,0v0
		c-10.7-0.3-136.4-5.6-185-58.8c-9.9-10.8-13.8-24.3-11.3-37.5c7.8-41.2,42.6-144.1,196.4-146v0c0.1,0,0.2,0,0.4,0
		c0.1,0,0.2,0,0.4,0v0c156,1.9,191.4,104.8,199.3,146C449.3,332.9,445.3,346.4,435.3,357.2z"/>
	<path class="st0" d="M183.6,269.7c-32.5-11-50.3-1.4-60.1,8.2c-7.2,7-8.6,18.3-3.2,26.7c5.8,9.1,18.2,20.1,44.7,28
		c52.8,15.7,59-17.3,59-17.3S234.8,287,183.6,269.7z"/>
	<path class="st0" d="M313.5,269.7c-51.6,17.3-40.7,45.6-40.7,45.6s6.3,33,59.4,17.3c26.6-7.9,39.1-18.9,45-28
		c5.5-8.5,4-19.7-3.2-26.7C364.2,268.3,346.2,258.7,313.5,269.7z"/>
	<ellipse class="st0" cx="73.7" cy="56.4" rx="27.2" ry="27.5"/>
	<ellipse class="st0" cx="423.5" cy="56.4" rx="27.2" ry="27.5"/>
</g>
</svg>
